<svg width="1200" height="630" viewBox="0 0 1200 630" fill="none" xmlns="http://www.w3.org/2000/svg">
  <defs>
    <linearGradient id="bg" x1="45" y1="20" x2="1126" y2="608" gradientUnits="userSpaceOnUse">
      <stop stop-color="#102019"/>
      <stop offset="1" stop-color="#25392D"/>
    </linearGradient>
    <radialGradient id="halo" cx="0" cy="0" r="1" gradientUnits="userSpaceOnUse" gradientTransform="translate(1023 84) rotate(136.803) scale(342.984 377.712)">
      <stop stop-color="#9BF11F" stop-opacity="0.42"/>
      <stop offset="1" stop-color="#9BF11F" stop-opacity="0"/>
    </radialGradient>
  </defs>
  <rect width="1200" height="630" rx="36" fill="url(#bg)"/>
  <rect width="1200" height="630" rx="36" fill="url(#halo)"/>
  <rect x="54" y="54" width="1092" height="522" rx="30" fill="#F2F3E9" fill-opacity="0.06" stroke="#D8E7D0" stroke-opacity="0.12"/>
  <g transform="translate(84 109)">
    <rect width="272" height="272" rx="54" fill="#F7F5EE"/>
    <path d="M31 193C66 168 96 156 127 153C173 149 215 160 259 174C243 182 228 194 211 213C187 238 160 251 120 251C84 251 56 235 31 193Z" fill="#276C18"/>
    <path d="M37 184C74 160 105 149 139 149C183 149 221 159 263 172C236 186 216 201 193 221C172 237 148 246 119 246C83 246 60 229 37 184Z" fill="#8FEC21"/>
    <path d="M68 160C72 141 84 126 105 115C130 101 161 94 198 94C227 94 250 99 266 110C277 117 281 128 278 139C275 150 265 155 249 156L96 165C78 166 66 179 68 160Z" fill="#111A21"/>
    <path d="M76 153C80 138 91 126 109 117C131 105 160 99 195 99C222 99 244 104 261 113C270 118 273 126 270 136C267 145 258 150 245 151L99 158C84 159 75 170 76 153Z" fill="#71D31D"/>
    <path d="M88 163H185C184 170 180 175 174 179H87C83 179 80 176 80 172C80 167 83 163 88 163Z" fill="#091015"/>
    <path d="M99 118C117 107 142 101 175 101C196 101 214 104 229 112C239 118 242 123 240 130C236 137 226 140 210 139C184 138 156 139 127 143C106 146 93 146 88 143C85 141 84 136 85 132C86 126 91 122 99 118Z" fill="#C8FF77" fill-opacity="0.55"/>
    <ellipse cx="227" cy="181" rx="22" ry="24" fill="#0D151B"/>
    <ellipse cx="227" cy="181" rx="17" ry="19" fill="#B8C0C9"/>
    <ellipse cx="227" cy="181" rx="13" ry="14" fill="#22313D"/>
    <rect x="143" y="86" width="15" height="24" rx="5" fill="#101820"/>
    <circle cx="150.5" cy="81.5" r="8" fill="#99F21F"/>
    <circle cx="150.5" cy="81.5" r="3.6" fill="#FBFFD7"/>
    <path d="M107 67C125 51 150 51 168 67" stroke="#3D8B20" stroke-width="7" stroke-linecap="round"/>
    <path d="M117 77C130 67 148 67 161 77" stroke="#58B120" stroke-width="6" stroke-linecap="round"/>
    <path d="M127 87C135 82 145 82 153 87" stroke="#8BDB21" stroke-width="5" stroke-linecap="round"/>
  </g>
  <g transform="translate(402 128)">
    <text fill="#F5F9EE" font-family="Avenir Next, Segoe UI, Helvetica, Arial, sans-serif" font-size="76" font-weight="700" letter-spacing="1">
      <tspan x="0" y="72">Navimow for Homebridge</tspan>
    </text>
    <text fill="#D5E4CE" font-family="Avenir Next, Segoe UI, Helvetica, Arial, sans-serif" font-size="34" font-weight="500" letter-spacing="0.2">
      <tspan x="0" y="148">Control Segway Navimow mowers from HomeKit.</tspan>
      <tspan x="0" y="196">Guided sign-in, live telemetry, and mower actions.</tspan>
    </text>
    <g transform="translate(0 252)">
      <rect width="250" height="58" rx="29" fill="#99EF22" fill-opacity="0.16"/>
      <text fill="#BDFB4D" font-family="Avenir Next, Segoe UI, Helvetica, Arial, sans-serif" font-size="25" font-weight="700" letter-spacing="1.7">
        <tspan x="28" y="37">SOCIAL PREVIEW</tspan>
      </text>
    </g>
    <text fill="#B6C9B2" font-family="Avenir Next, Segoe UI, Helvetica, Arial, sans-serif" font-size="26" font-weight="500" letter-spacing="0.15">
      <tspan x="0" y="372">GitHub: LeiterConsulting/navimowhb</tspan>
      <tspan x="0" y="412">npm: homebridge-navimow</tspan>
    </text>
  </g>
</svg>