<svg width="1600" height="900" viewBox="0 0 1600 900" fill="none" xmlns="http://www.w3.org/2000/svg">
  <defs>
    <linearGradient id="bg" x1="174" y1="90" x2="1438" y2="842" gradientUnits="userSpaceOnUse">
      <stop stop-color="#F4F2E9"/>
      <stop offset="0.45" stop-color="#E3ECDA"/>
      <stop offset="1" stop-color="#D6E5CD"/>
    </linearGradient>
    <radialGradient id="glow" cx="0" cy="0" r="1" gradientUnits="userSpaceOnUse" gradientTransform="translate(1229 132) rotate(129.708) scale(483.667 540.081)">
      <stop stop-color="#99E71D" stop-opacity="0.45"/>
      <stop offset="1" stop-color="#99E71D" stop-opacity="0"/>
    </radialGradient>
    <linearGradient id="panel" x1="178" y1="180" x2="1320" y2="738" gradientUnits="userSpaceOnUse">
      <stop stop-color="#112019"/>
      <stop offset="1" stop-color="#213328"/>
    </linearGradient>
    <linearGradient id="accent" x1="900" y1="560" x2="1344" y2="304" gradientUnits="userSpaceOnUse">
      <stop stop-color="#6FC91D"/>
      <stop offset="1" stop-color="#A1F02A"/>
    </linearGradient>
  </defs>
  <rect width="1600" height="900" rx="48" fill="url(#bg)"/>
  <rect width="1600" height="900" rx="48" fill="url(#glow)"/>
  <rect x="86" y="86" width="1428" height="728" rx="40" fill="url(#panel)"/>
  <path d="M108 697C200 632 278 606 360 602C480 595 588 621 703 655C830 692 944 698 1098 658C1154 643 1209 634 1282 634C1202 665 1129 716 1050 785C970 856 857 892 705 892C521 892 344 828 108 697Z" fill="#2A6E19" fill-opacity="0.88"/>
  <path d="M152 676C248 613 334 594 416 594C537 594 650 620 765 651C891 685 1008 682 1180 625C1230 609 1275 603 1344 603C1269 634 1208 688 1106 770C1010 844 892 880 745 880C531 880 336 811 152 676Z" fill="url(#accent)"/>
  <g transform="translate(112 168)">
    <rect width="360" height="360" rx="72" fill="#F7F5EE"/>
    <path d="M42 253C88 220 127 204 168 201C228 196 283 210 340 228C318 239 298 255 276 278C244 312 208 329 156 329C109 329 72 308 42 253Z" fill="#276C18"/>
    <path d="M49 241C98 208 139 194 184 194C242 194 292 207 346 224C312 242 286 261 256 287C229 309 198 321 159 321C111 321 80 299 49 241Z" fill="#8FEC21"/>
    <path d="M91 208C96 183 111 163 138 149C171 131 212 122 260 122C297 122 327 129 347 143C361 152 366 166 362 180C357 194 344 201 324 202L125 213C101 214 89 234 91 208Z" fill="#111A21"/>
    <path d="M101 198C107 178 121 162 144 150C173 134 210 126 256 126C291 126 320 132 342 145C353 151 357 161 354 174C350 186 339 193 322 195L132 204C112 205 100 220 101 198Z" fill="#71D31D"/>
    <path d="M118 212H245C243 221 238 228 230 233H117C112 233 108 229 108 224C108 218 112 212 118 212Z" fill="#091015"/>
    <path d="M132 152C155 138 188 131 230 131C258 131 281 135 300 145C313 152 318 159 315 168C310 178 297 182 275 181C242 179 207 180 171 185C144 188 127 188 121 184C117 182 116 176 118 171C119 163 124 158 132 152Z" fill="#C8FF77" fill-opacity="0.55"/>
    <ellipse cx="298" cy="236" rx="28" ry="31" fill="#0D151B"/>
    <ellipse cx="298" cy="236" rx="22" ry="25" fill="#B8C0C9"/>
    <ellipse cx="298" cy="236" rx="17" ry="19" fill="#22313D"/>
    <rect x="186" y="112" width="20" height="31" rx="7" fill="#101820"/>
    <circle cx="196" cy="106" r="10" fill="#99F21F"/>
    <circle cx="196" cy="106" r="4.5" fill="#FBFFD7"/>
    <path d="M139 88C162 68 196 68 219 88" stroke="#3D8B20" stroke-width="9" stroke-linecap="round"/>
    <path d="M151 101C168 88 192 88 209 101" stroke="#58B120" stroke-width="8" stroke-linecap="round"/>
    <path d="M164 114C174 107 187 107 197 114" stroke="#8BDB21" stroke-width="7" stroke-linecap="round"/>
  </g>
  <g transform="translate(540 192)">
    <text fill="#F5F9EE" font-family="Avenir Next, Segoe UI, Helvetica, Arial, sans-serif" font-size="104" font-weight="700" letter-spacing="1.5">
      <tspan x="0" y="100">Navimow for</tspan>
      <tspan x="0" y="220">Homebridge</tspan>
    </text>
    <text fill="#D9E8D1" font-family="Avenir Next, Segoe UI, Helvetica, Arial, sans-serif" font-size="42" font-weight="500" letter-spacing="0.4">
      <tspan x="0" y="318">See and control Segway Navimow mowers from HomeKit</tspan>
    </text>
    <g transform="translate(0 382)">
      <rect width="362" height="70" rx="35" fill="#A0F128" fill-opacity="0.18"/>
      <text fill="#BDFB4D" font-family="Avenir Next, Segoe UI, Helvetica, Arial, sans-serif" font-size="28" font-weight="700" letter-spacing="2.4">
        <tspan x="31" y="44">PLUGIN BRAND BANNER</tspan>
      </text>
    </g>
    <text fill="#B6C9B2" font-family="Avenir Next, Segoe UI, Helvetica, Arial, sans-serif" font-size="30" font-weight="500" letter-spacing="0.3">
      <tspan x="0" y="510">Use for GitHub releases, repository previews, and social shares.</tspan>
    </text>
  </g>
</svg>