<svg width="512" height="512" viewBox="0 0 512 512" fill="none" xmlns="http://www.w3.org/2000/svg">
  <rect width="512" height="512" rx="112" fill="#F4F1E8"/>
  <path d="M111 337C111 295.026 145.026 261 187 261H325C366.974 261 401 295.026 401 337V347C401 364.673 386.673 379 369 379H143C125.327 379 111 364.673 111 347V337Z" fill="#48613F"/>
  <path d="M164 236C164 186.294 204.294 146 254 146H258C307.706 146 348 186.294 348 236V262H164V236Z" fill="#729C5A"/>
  <path d="M208 173L289 252H251L180 181C188.15 175.822 197.379 172.923 208 173Z" fill="#F4F1E8"/>
  <path d="M328 174V252H287L206 173.5H245L287 215.5V174H328Z" fill="#14231A"/>
  <circle cx="179" cy="381" r="27" fill="#14231A"/>
  <circle cx="333" cy="381" r="27" fill="#14231A"/>
  <path d="M337 122C352.626 125.3 366.66 133.596 377.002 145.573C387.344 157.55 393.41 172.609 394.249 188.41C378.155 184.999 363.713 176.596 353.095 164.546C342.478 152.496 336.268 137.411 337 122Z" fill="#A54834"/>
</svg>